<svg width="141" height="59" viewBox="0 0 141 59" fill="none" xmlns="http://www.w3.org/2000/svg">
<path d="M0.721837 9.561C-2.92968 20.3384 8.40091 27.1349 9.57561 38.3132C9.87084 48.7022 11.0393 58.2458 13.8456 58.2241C17.8638 58.1961 22.373 40.5538 28.4516 39.7987C33.6508 39.1523 35.0181 43.6211 36.976 53.2269C38.9338 62.8328 44.6209 59.1067 46.6781 46.3652C48.7354 33.6237 52.1663 26.3735 52.1663 26.3735C52.1663 26.3735 62.5304 4.56075 43.6171 0.620216C43.6171 0.620216 33.253 -1.68568 27.7679 2.95097C27.7679 2.95097 20.8938 -0.427073 14.3459 0.0452939C8.71789 0.455507 2.39377 4.62601 0.721837 9.561Z" fill="white"/>
<path d="M28.9875 19.0185C28.9875 19.0185 20.6641 24.8789 20.6641 30.2045C20.6641 35.5301 27.5695 34.3654 28.9875 31.5048" fill="#6199FF"/>
<path d="M28.9863 19.0185C28.9863 19.0185 37.3098 24.8789 37.3098 30.2045C37.3098 35.5301 30.4013 34.3654 28.9863 31.5048" fill="#6199FF"/>
<path d="M36.5271 15.3248C37.1969 13.4573 36.4746 11.5084 34.9137 10.9717C33.3529 10.4351 31.5446 11.5138 30.8749 13.3813C30.2051 15.2487 30.9274 17.1976 32.4882 17.7343C34.0491 18.271 35.8574 17.1922 36.5271 15.3248Z" fill="#6199FF"/>
<path d="M25.6556 17.8619C27.2721 17.5174 28.2339 15.6703 27.804 13.7364C27.374 11.8024 25.7151 10.5139 24.0987 10.8584C22.4823 11.2029 21.5204 13.05 21.9504 14.9839C22.3803 16.9179 24.0392 18.2064 25.6556 17.8619Z" fill="#6199FF"/>
<path d="M43.0193 22.5351C44.4632 20.9666 44.6376 18.816 43.4088 17.7316C42.18 16.6471 40.0134 17.0395 38.5695 18.608C37.1256 20.1764 36.9512 22.3271 38.18 23.4115C39.4088 24.4959 41.5754 24.1036 43.0193 22.5351Z" fill="#6199FF"/>
<path d="M20.4537 23.3943C21.6825 22.3099 21.5082 20.1593 20.0643 18.5908C18.6204 17.0223 16.4537 16.63 15.2249 17.7144C13.9961 18.7988 14.1705 20.9494 15.6144 22.5179C17.0583 24.0864 19.225 24.4787 20.4537 23.3943Z" fill="#6199FF"/>
<path d="M68.7931 26H64.0843V11.4545H68.9423C70.3675 11.4545 71.5914 11.7457 72.6142 12.3281C73.6369 12.9058 74.4205 13.7367 74.965 14.821C75.5143 15.9006 75.7889 17.1955 75.7889 18.706C75.7889 20.2211 75.5119 21.5232 74.9579 22.6122C74.4087 23.7012 73.6132 24.5393 72.5716 25.1264C71.5299 25.7088 70.2704 26 68.7931 26ZM66.2789 24.0824H68.6724C69.7804 24.0824 70.7013 23.8741 71.4352 23.4574C72.1691 23.036 72.7183 22.4276 73.0829 21.6321C73.4475 20.8319 73.6298 19.8565 73.6298 18.706C73.6298 17.5649 73.4475 16.5966 73.0829 15.8011C72.7231 15.0057 72.1857 14.402 71.4707 13.9901C70.7557 13.5781 69.868 13.3722 68.8074 13.3722H66.2789V24.0824ZM78.5179 26V11.4545H87.6373V13.3438H80.7125V17.7756H87.1614V19.6577H80.7125V24.1108H87.7225V26H78.5179ZM102.309 11.4545V26H100.292L92.8983 15.3324H92.7633V26H90.5687V11.4545H92.6L100.001 22.1364H100.135V11.4545H102.309ZM104.793 13.3438V11.4545H116.05V13.3438H111.512V26H109.324V13.3438H104.793ZM118.047 26H115.718L120.952 11.4545H123.488L128.722 26H126.393L122.28 14.0966H122.167L118.047 26ZM118.438 20.304H125.995V22.1506H118.438V20.304ZM130.823 26V11.4545H133.017V24.1108H139.608V26H130.823Z" fill="white"/>
<path d="M65.3283 33.4545L69.3766 45.3011H69.54L73.5882 33.4545H75.9604L70.726 48H68.1905L62.9561 33.4545H65.3283ZM78.0609 48V33.4545H87.1802V35.3438H80.2555V39.7756H86.7044V41.6577H80.2555V46.1108H87.2654V48H78.0609ZM89.3944 35.3438V33.4545H100.651V35.3438H96.1131V48H93.9256V35.3438H89.3944Z" fill="white"/>
</svg>
