<svg width="19" height="19" viewBox="0 0 19 19" fill="none" xmlns="http://www.w3.org/2000/svg">
<path d="M17.8917 18.9999C15.6222 18.9999 13.4098 18.4985 11.2543 17.4958C9.09889 16.493 7.19009 15.156 5.52795 13.4847C3.8658 11.8134 2.52876 9.90002 1.51683 7.74458C0.504908 5.58914 -0.00070297 3.37706 7.33534e-07 1.10833V0.554165C7.33534e-07 0.360647 0.0175933 0.175925 0.0527785 0H6.22778L7.20417 5.30415L4.19583 8.33886C4.93472 9.60552 5.86291 10.793 6.98039 11.9013C8.09787 13.0097 9.32478 13.9685 10.6611 14.7777L13.7222 11.7166L19 12.7722V18.9471C18.8241 18.9647 18.6394 18.9781 18.4458 18.9873C18.2523 18.9964 18.0676 19.0006 17.8917 18.9999Z" fill="white"/>
</svg>
